<svg xmlns="http://www.w3.org/2000/svg" viewBox="0 0 1200.24 557"><defs><style>.cls-1{fill:#041e42;}.cls-2,.cls-4{fill:#fff;}.cls-2,.cls-9{fill-rule:evenodd;}.cls-3{fill:#ffc220;}.cls-5{fill:#a0ce67;}.cls-6{fill:#00bbe3;}.cls-7{fill:#0080c5;}.cls-8{fill:#0071dc;}.cls-9{fill:#fdbe10;}.cls-10{fill:#fa6400;}.cls-11{fill:#ffb71b;}</style></defs><g id="Capa_2" data-name="Capa 2"><g id="Capa_1-2" data-name="Capa 1"><rect class="cls-1" width="1200.24" height="557"/><path class="cls-2" d="M934.37,202l1.17-4.45c2.84-11.43,7-25.61,7-25.61h-8.79L929,188.8s-3.71,14-3.82,14.94c-.14,1.21-.6,3.65,1.31,5.67s6,1.82,6,1.82h8.59L943,204.1h-7.82S933.84,204,934.37,202Z"/><path class="cls-2" d="M989.8,171.87c-.82,4.15-2.33,8-3.16,12.09-13.56-5.51-29,3.43-27.56,17.85.71,6.84,7.39,9.95,15.08,9.36,0,0,13.42-.28,17.31-13.55l6.34-25.75Zm-10.27,32.37c-3,2.28-9.27,2.24-11.09-1s-.57-7.93,1-10.4c2.87-4.4,10.47-7.27,15.6-2.78C983.86,194.47,982.77,201.76,979.53,204.24Z"/><path class="cls-2" d="M1002.58,198.69c8,1.83,19,.63,23.05-4.33a7.9,7.9,0,0,0,1.22-7.46c-1.79-4.08-8.42-5.1-14.21-4.67-10.11.74-19.87,6.93-18.55,18.71,1.09,9.79,13.51,12.14,24.44,8.84.46-2.14.54-4.65,1-6.76C1015.07,206.55,1001.16,207.93,1002.58,198.69Zm9.54-11.09c2.42-.43,6.41-.1,7.1,1.9,1.13,3.28-5.05,4.45-8.49,4.68a20.92,20.92,0,0,1-6.59-.52A12,12,0,0,1,1012.12,187.6Z"/><path class="cls-2" d="M1039.33,185l.43-2.25h-8.06c-2.3,9.19-4.58,19.21-6.79,28.49h8.15l.77-4.83c1.49-8,3.33-18,11.21-18.81,3.06-.3,4,.91,6.24,1.56.07-.21,2.26-6.41,2.26-6.41A19,19,0,0,0,1039.33,185Z"/><path class="cls-2" d="M947.58,182.89l-1.51,6h4.35c-1.74,7.46-3.48,14.89-5.2,22.36h8.32c2-9.43,4.44-19,6.52-28.35Z"/><path class="cls-2" d="M956.37,179.69c2.9,0,5.24-1.2,5.24-4.11,0-2.28-2.34-4.12-5.24-4.12s-5.24,1.84-5.24,4.12S953.47,179.69,956.37,179.69Z"/><path class="cls-3" d="M1092.72,180.56c1.57,0,2.86-.81,3-1.87l1.55-17.53c0-1.73-2-3.16-4.58-3.16s-4.58,1.43-4.58,3.16l1.55,17.53c.17,1.06,1.46,1.87,3,1.87Z"/><path class="cls-3" d="M1083.24,186c.79-1.36.73-2.89-.1-3.56l-14.41-10.11c-1.49-.87-3.74.18-5,2.38s-1,4.68.45,5.55l15.95,7.43c1,.37,2.36-.34,3.14-1.7Z"/><path class="cls-3" d="M1102.2,186c.79,1.36,2.14,2.07,3.14,1.69l16-7.42c1.5-.87,1.71-3.34.44-5.54s-3.53-3.26-5-2.39l-14.41,10.11c-.82.67-.88,2.2-.1,3.56Z"/><path class="cls-3" d="M1092.72,202.46c1.57,0,2.86.81,3,1.86l1.55,17.54c0,1.73-2,3.15-4.58,3.15s-4.58-1.42-4.58-3.15l1.55-17.54c.17-1,1.46-1.86,3-1.86Z"/><path class="cls-3" d="M1102.2,197c.79-1.36,2.14-2.06,3.14-1.69l16,7.42c1.5.88,1.71,3.34.44,5.55s-3.53,3.25-5,2.39l-14.41-10.1c-.82-.69-.88-2.21-.1-3.57Z"/><path class="cls-3" d="M1083.24,197c.79,1.36.73,2.89-.1,3.57l-14.41,10.1c-1.49.86-3.74-.18-5-2.39s-1-4.68.45-5.55l15.95-7.42c1-.37,2.36.33,3.14,1.7Z"/><path class="cls-3" d="M1126.42,208.45a2.62,2.62,0,0,1,1.23.32,2.34,2.34,0,0,1,.94.93,2.53,2.53,0,0,1,0,2.5,2.33,2.33,0,0,1-.92.92,2.51,2.51,0,0,1-2.49,0,2.35,2.35,0,0,1-.93-.92,2.57,2.57,0,0,1-.33-1.25,2.48,2.48,0,0,1,.34-1.25,2.31,2.31,0,0,1,.93-.93A2.62,2.62,0,0,1,1126.42,208.45Zm0,.42a2.1,2.1,0,0,0-1,.27,1.93,1.93,0,0,0-.78.77,2.06,2.06,0,0,0-.28,1,2.15,2.15,0,0,0,.27,1,2,2,0,0,0,.78.77,2,2,0,0,0,1,.28,2.06,2.06,0,0,0,1-.28,1.9,1.9,0,0,0,.77-.77,2.07,2.07,0,0,0,0-2.08,1.93,1.93,0,0,0-.78-.77A2.17,2.17,0,0,0,1126.42,208.87Zm-1.09,3.47v-2.7h.92a2.22,2.22,0,0,1,.69.08.73.73,0,0,1,.34.26.69.69,0,0,1,.12.39.73.73,0,0,1-.21.52.81.81,0,0,1-.56.24.66.66,0,0,1,.23.15,2.84,2.84,0,0,1,.4.53l.33.53h-.53l-.24-.43a2,2,0,0,0-.46-.62.49.49,0,0,0-.34-.1h-.26v1.15Zm.43-1.52h.53a.87.87,0,0,0,.51-.11.36.36,0,0,0,.14-.3.37.37,0,0,0-.06-.21.38.38,0,0,0-.19-.14,1.1,1.1,0,0,0-.43-.05h-.5Z"/><path class="cls-4" d="M84.71,146.88c-4.49,4.49-6.61,10.43-6.61,18.65a44,44,0,0,0,3.73,16.52,67.36,67.36,0,0,0,15.42,22.54,96.34,96.34,0,0,0,13.56,11.19,115.06,115.06,0,0,0,31.78,18.73,111.1,111.1,0,0,0,43,8,115.71,115.71,0,0,0,44.91-9.83,104.73,104.73,0,0,0,33.22-23.22,67,67,0,0,0,15.93-27.11,51.87,51.87,0,0,0,2.37-14.5v-.42h0a25.63,25.63,0,0,0-1.95-9,18.68,18.68,0,0,0-10.33-10.6c-3.65-4.06-8.9-6.27-15.17-6.27-7.29,0-15.77,1.87-25.6,4-13.05,2.79-27.79,6-44.49,6-14.91,0-31.52-3.22-46.1-6.1-12.62-2.63-24.49-4.91-33.64-4.91C102.42,140.53,90.73,140.87,84.71,146.88Z"/><path class="cls-5" d="M90.73,173.92c-.17-6.44,1.1-11.78,5.08-16s12.29-5.51,17.12-5.59c19.24-.43,51.19,9.66,78.9,9.06,29.49-.67,53-11,69.06-11.44a18.73,18.73,0,0,1,6.44.85c-2.54-3.22-6.52-5.68-13-5.68-16.27,0-40.34,10-70.08,10-28,0-60.08-10.93-79.57-10.93-4.92,0-13.31,1.1-17.46,5.25s-5.51,9.5-5.51,16,3.22,21.7,18,36.53a98.86,98.86,0,0,0,13.14,10.84c-1.27-1.1-2.46-2.2-3.56-3.22C94.37,195.27,90.81,180.44,90.73,173.92Z"/><path class="cls-6" d="M278.26,167.39c0-1.69-.84-13.3-10.84-16.61,3.81,4.83,4.06,11.1,4.06,12.37,0,2-.67,21.87-18.3,39.49s-44.4,30.6-77.12,30.6c-24.74,0-47.2-9.33-63.13-20.34,15.76,13.39,42.54,26.52,72.46,25.84,32.37-.76,58.47-14.06,75.59-31.94S278.35,169.42,278.26,167.39Z"/><path class="cls-7" d="M253.18,202.64c17.63-17.62,18.31-37.45,18.31-39.49,0-1.27-.26-7.54-4.07-12.37a19.08,19.08,0,0,0-6.44-.85c-16.1.34-39.66,10.77-69.07,11.44-27.71.6-59.66-9.49-78.89-9.06-4.83.08-13.14,1.44-17.12,5.59s-5.26,9.49-5.09,16,3.65,21.35,18.65,35.76c1.1,1.1,2.28,2.12,3.56,3.22,15.84,10.93,38.3,20.34,63.13,20.34C208.78,233.24,235.47,220.27,253.18,202.64Z"/><path class="cls-4" d="M114.37,187.9c-2,0-3.73-.6-4.57-1.7a3.86,3.86,0,0,1-.68-2.12c7.12.17,11.69-.93,14.06-3.22a6.08,6.08,0,0,0,1.87-4.66c0-4.23-3.48-7.11-8.73-7.11a14.3,14.3,0,0,0-10.68,4.57,14.92,14.92,0,0,0-3.9,9.92c0,6.27,4,9.91,10.85,9.91a22.57,22.57,0,0,0,9.24-1.86l-.42-5.26A25.17,25.17,0,0,1,114.37,187.9Zm1-13.48c1.52,0,2.54.68,2.54,1.78v.09a1.72,1.72,0,0,1-.51,1.27c-.93,1-3.3,1.36-7.62,1.36A5.85,5.85,0,0,1,115.39,174.42Z"/><path class="cls-4" d="M216.4,180.86a6.12,6.12,0,0,0,1.87-4.66c0-4.23-3.48-7.11-8.73-7.11a14.3,14.3,0,0,0-10.68,4.57,14.88,14.88,0,0,0-3.9,9.92c0,6.27,4,9.91,10.85,9.91a22.57,22.57,0,0,0,9.24-1.86l-.43-5.26a25.88,25.88,0,0,1-7,1.53c-2,0-3.73-.6-4.58-1.7a4,4,0,0,1-.68-2.12C209.37,184.25,213.94,183.24,216.4,180.86Zm-13.39-2a5.88,5.88,0,0,1,5.6-4.49c1.52,0,2.54.68,2.54,1.78v.08a1.7,1.7,0,0,1-.51,1.27C209.62,178.49,207.33,178.83,203,178.83Z"/><polygon class="cls-4" points="152.84 169.68 144.12 169.68 138.78 176.88 135.73 169.68 127.42 169.68 133.27 180.95 122.42 193.07 131.24 193.07 136.66 185.19 139.71 193.07 148.1 193.07 142.34 181.03 152.84 169.68"/><path class="cls-4" d="M169.29,169.09a10.45,10.45,0,0,0-7.8,3.64c.08-.59.42-3.31.42-3.31h-6.86s-.59,4.92-1.44,9.24-4.83,23.73-4.83,23.73h7.88l1.69-9.75a10.53,10.53,0,0,0,4.58.94,13.9,13.9,0,0,0,10.51-4.75,16.39,16.39,0,0,0,4-10.76C177.34,172.64,174.2,169.09,169.29,169.09Zm-5.77,10.67h0c-1.86,2-2.62,5-.25,7.29a1.57,1.57,0,0,0,.42.34c-.25-.09-.59-.17-.85-.25-3.05-1.19-3.47-4.41-2.45-6.78v-.09c.42-1,1.69-4.24,7.45-6.78l.43-.17.17.43a11.8,11.8,0,0,1,1,3C165.64,177.47,164.12,179.08,163.52,179.76Z"/><path class="cls-4" d="M251.23,178.83c-2-.93-2.88-1.69-2.88-2.46,0-1.18,1.19-1.86,3.05-1.86a13.72,13.72,0,0,1,5,1l1.78-5.09s-2.12-1.27-6.52-1.27a13.36,13.36,0,0,0-7.89,2.2,7.14,7.14,0,0,0-3.13,5.94c0,2.45,1.78,4.57,5.25,6.27,2.21,1,3,1.78,3,2.79,0,1.19-1.1,1.95-2.88,1.95a17.88,17.88,0,0,1-6.53-1.69l-1.86,5.08a14.38,14.38,0,0,0,7.71,1.87c4.07,0,7.37-1,9.41-3.05a6.91,6.91,0,0,0,2.11-5.26C256.82,181.88,253.86,180,251.23,178.83Z"/><path class="cls-4" d="M231.4,178.83c-2-.93-2.88-1.69-2.88-2.46,0-1.18,1.19-1.86,3-1.86a13.72,13.72,0,0,1,5,1l1.78-5.09s-2.12-1.27-6.52-1.27a13.36,13.36,0,0,0-7.89,2.2,7.14,7.14,0,0,0-3.13,5.94c0,2.45,1.78,4.57,5.25,6.27,2.21,1,3,1.78,3,2.79,0,1.19-1.1,1.95-2.88,1.95a17.88,17.88,0,0,1-6.53-1.69l-1.86,5.08a14.38,14.38,0,0,0,7.71,1.87c4.07,0,7.37-1,9.41-3.05a6.91,6.91,0,0,0,2.11-5.26C237.08,181.88,234,180,231.4,178.83Z"/><path class="cls-4" d="M196.74,169.17s-1.18-.08-1.61-.08c-3,0-5.85,1.86-7.79,5.08l.42-4.49h-6.61s-.68,6.18-1.53,10.76-2.54,12.63-2.54,12.63h7.54l1.78-8.73c.77-3.73,2.63-8.22,7.55-8.22a8.16,8.16,0,0,1,1.35.08Z"/><path class="cls-5" d="M163.78,186.46a3.74,3.74,0,0,1-1.19-2.71,5,5,0,0,1,1.53-3.39h0c.67-.77,2.79-3,8.47-3.22v.25c0,5.51-2,7.71-2.71,8.39h0a5,5,0,0,1-3.39,1.69A3.58,3.58,0,0,1,163.78,186.46Z"/><path class="cls-2" d="M163.27,209.59s-1.1,3.9-1.87,6.95l-.33,1.19c-.17.59.25.59.25.59h2.12l-.51,2h-2.37a2.21,2.21,0,0,1-1.61-.51,1.58,1.58,0,0,1-.34-1.52c0-.26,1-4.07,1-4.07l1.28-4.58Z"/><path class="cls-2" d="M178.35,209.59l-1.69,7a5.19,5.19,0,0,1-4.75,3.72c-2.12.17-3.9-.67-4.07-2.54-.42-3.9,3.82-6.35,7.46-4.83.26-1.1.68-2.12.85-3.3h2.2Zm-7.71,5.68a3,3,0,0,0-.25,2.8c.51.93,2.2.93,3.05.25s1.18-2.63,1.52-3.9a3.14,3.14,0,0,0-4.32.85"/><path class="cls-2" d="M179.62,216.88c-.42,2.54,3.39,2.12,4.66,1.19a16.94,16.94,0,0,0-.25,1.86c-3,.93-6.36.26-6.61-2.37-.34-3.22,2.29-4.92,5.08-5.09,1.62-.08,3.39.17,3.9,1.27a2.11,2.11,0,0,1-.34,2c-1.27,1.27-4.23,1.61-6.44,1.1m2.21-1.19c.93-.08,2.62-.42,2.29-1.27-.17-.51-1.28-.68-2-.51a3.45,3.45,0,0,0-2.21,1.61,6.69,6.69,0,0,0,1.87.17"/><path class="cls-2" d="M193.52,212.56s-.59,1.69-.59,1.78c-.59-.17-.85-.51-1.7-.43-2.12.26-2.62,3-3,5.09l-.17,1.27h-2.28c.59-2.54,1.18-5.25,1.86-7.8h2.2l-.08.6a5.48,5.48,0,0,1,3.81-.51"/><path class="cls-2" d="M168,212.56c-.59,2.54-1.27,5.17-1.78,7.71H164c.5-2,.93-4.07,1.44-6.1H164.2l.42-1.61Z"/><path class="cls-2" d="M168.44,210.61c0,.76-.68,1.1-1.44,1.1s-1.44-.51-1.44-1.1.67-1.1,1.44-1.1,1.44.51,1.44,1.1"/><path class="cls-4" d="M204.11,212a.89.89,0,0,0,.85-.51l.43-4.75c0-.51-.6-.85-1.28-.85s-1.27.43-1.27.85l.43,4.75a.89.89,0,0,0,.84.51Z"/><path class="cls-4" d="M201.57,213.49a.74.74,0,0,0,0-.93l-3.9-2.71c-.42-.26-1,.08-1.35.67a1.23,1.23,0,0,0,.08,1.53l4.32,2a1.39,1.39,0,0,0,.85-.59Z"/><path class="cls-4" d="M206.74,213.49c.26.34.59.59.85.42l4.32-2a1,1,0,0,0,.09-1.52,1.18,1.18,0,0,0-1.36-.68l-3.9,2.71a1,1,0,0,0,0,1.1Z"/><path class="cls-4" d="M204.11,217.9a.88.88,0,0,1,.85.51l.43,4.74c0,.51-.6.85-1.28.85s-1.27-.43-1.27-.85l.43-4.74a.87.87,0,0,1,.84-.51Z"/><path class="cls-4" d="M206.74,216.46c.26-.34.59-.6.85-.43l4.32,2a1,1,0,0,1,.09,1.52,1.18,1.18,0,0,1-1.36.68l-3.9-2.71a1,1,0,0,1,0-1.1Z"/><path class="cls-4" d="M201.57,216.46a.74.74,0,0,1,0,.93l-4,2.8c-.42.25-1-.09-1.36-.68a1.23,1.23,0,0,1,.09-1.53l4.32-2a.8.8,0,0,1,.93.51Z"/><path class="cls-4" d="M213.35,219.59a.48.48,0,0,1,.34.09l.25.25a.69.69,0,0,1,0,.68l-.25.25a.48.48,0,0,1-.34.09.5.5,0,0,1-.34-.09l-.25-.25a.69.69,0,0,1,0-.68l.25-.25c.09-.09.17-.09.34-.09m0,.09a.31.31,0,0,0-.25.08c-.09.09-.17.09-.26.17a.34.34,0,0,0-.08.26.32.32,0,0,0,.08.25c.09.08.09.17.17.17a.34.34,0,0,0,.26.08.31.31,0,0,0,.25-.08c.09-.09.17-.09.17-.17a.3.3,0,0,0,.09-.25.31.31,0,0,0-.09-.26c-.08-.08-.08-.17-.25-.17.08-.08,0-.08-.09-.08m-.34.93v-.76h.43a.08.08,0,0,1,.08.08V220c0,.08,0,.08-.08.17a.32.32,0,0,1-.17.08h.08a.27.27,0,0,1,.09.17l.08.17h-.17l-.08-.09a.25.25,0,0,1-.09-.17H213v.34h0Zm.17-.42h.34V220h-.34v.17Z"/><path class="cls-2" d="M151.57,214.85l-.84,3.3a2.52,2.52,0,0,1-2.21,1.78c-1,.09-1.86-.34-2-1.19-.17-1.86,1.78-3,3.56-2.28.09-.51.34-1,.43-1.53h1Zm-3.64,2.71a1.84,1.84,0,0,0-.17,1.35c.25.43,1,.43,1.44.17a3.37,3.37,0,0,0,.68-1.86,1.29,1.29,0,0,0-1.95.34"/><path class="cls-2" d="M152.17,218.32c-.17,1.19,1.61,1,2.2.59-.08.26-.08.6-.17.85-1.44.43-3,.09-3.13-1.1-.17-1.53,1.1-2.29,2.37-2.37.76-.09,1.61.08,1.86.59a.88.88,0,0,1-.17.93,3.38,3.38,0,0,1-3,.51m1-.59c.43,0,1.28-.17,1.11-.6-.09-.25-.6-.33-.94-.25a1.36,1.36,0,0,0-1,.76,2.41,2.41,0,0,0,.84.09"/><path class="cls-4" d="M708.78,173.06s-3.95,13.43-6.64,24.26L701,201.54c-.5,2,.81,2,.81,2h7.42l-1.81,6.75h-8.16s-3.94.2-5.75-1.72-1.37-4.23-1.23-5.37c.1-.91,3.62-14.16,3.62-14.16l4.5-16Z"/><path class="cls-4" d="M761.27,173l-6,24.39c-3.69,12.58-16.44,12.84-16.44,12.84-7.31.57-13.65-2.39-14.32-8.87-1.41-13.66,13.29-22.13,26.17-16.91.79-3.91,2.22-7.52,3-11.45Zm-26.9,19.83c-1.53,2.34-2.64,6.88-1,9.85,1.73,3.12,7.69,3.16,10.53,1,3.08-2.34,4.11-9.26,5.27-13.47-4.87-4.26-12.09-1.54-14.81,2.63"/><path class="cls-4" d="M765.8,198.44c-1.35,8.75,11.85,7.44,16.13,4.11-.47,2-.55,4.37-1,6.4-10.38,3.12-22.16.9-23.2-8.37-1.26-11.17,8-17,17.61-17.74,5.5-.4,11.8.57,13.5,4.43a7.49,7.49,0,0,1-1.16,7.07c-3.87,4.7-14.31,5.84-21.89,4.1m7.74-4.27c3.27-.22,9.14-1.32,8.06-4.43-.66-1.9-4.44-2.22-6.75-1.81a11.4,11.4,0,0,0-7.57,5.75,20.1,20.1,0,0,0,6.26.49"/><path class="cls-4" d="M814.19,183.34s-2.08,5.87-2.14,6.07c-2.12-.61-3-1.77-5.93-1.48-7.48.74-9.23,10.22-10.65,17.83l-.72,4.57H787c2.1-8.79,4.26-18.28,6.44-27h7.66l-.42,2.13a18.09,18.09,0,0,1,13.5-2.13"/><path class="cls-4" d="M725.43,183.47c-2,8.87-4.29,17.93-6.2,26.86h-7.9q2.45-10.61,4.94-21.18l-4.13,0,1.43-5.66Z"/><path class="cls-4" d="M726.9,176.55c0,2.76-2.23,3.9-5,3.9s-5-1.75-5-3.9,2.23-3.91,5-3.91,5,1.75,5,3.91"/><path class="cls-3" d="M810,208.66a5.06,5.06,0,0,0,7.11,0,5,5,0,1,0-7.11,0"/><path class="cls-4" d="M848.5,184.69a15.4,15.4,0,0,0-7.31-1.63,15.73,15.73,0,0,0-11.94,4.8A16.89,16.89,0,0,0,824.69,200a9.65,9.65,0,0,0,3.13,7.61q3.12,2.76,8.47,2.76a22.66,22.66,0,0,0,8.31-1.57l.79-6.42c-3.19,1.87-5.95,2.8-8.31,2.8a5.08,5.08,0,0,1-4-1.74,6.07,6.07,0,0,1-1.56-4.2,11.61,11.61,0,0,1,2.75-7.9,9.2,9.2,0,0,1,7.3-3.16,9.82,9.82,0,0,1,5.58,1.89Z"/><path class="cls-4" d="M855.61,173.1l-4.1,18.31s-2.41,9.83-2.41,12.88,1.28,5.83,4.94,5.83h3l1.12-5.21s-3,.28-2.38-2.69c.4-1.92,6.25-29.12,6.25-29.12Z"/><path class="cls-4" d="M443.3,175a.86.86,0,0,1,.86-.86h4.18a.89.89,0,0,1,.86.86V200.5h11.58a.87.87,0,0,1,.86.86v3.72a.87.87,0,0,1-.86.87H444.16a.86.86,0,0,1-.86-.87Z"/><path class="cls-4" d="M464.45,177.75a3.61,3.61,0,0,1,7.22,0,3.61,3.61,0,1,1-7.22,0Zm.82,8.22a1,1,0,0,1,1-1H470a1,1,0,0,1,1,1v19a1,1,0,0,1-1,1h-3.68a1,1,0,0,1-1-1Z"/><path class="cls-4" d="M485.88,184.52a15.66,15.66,0,0,1,5,.86V175.17a1.08,1.08,0,0,1,1-1h3.68a1,1,0,0,1,1,1v30a1,1,0,0,1-1.09.95,3.08,3.08,0,0,1-3.27-2.63,9,9,0,0,1-6.72,2.95c-5.72,0-10-4.63-10-11C475.48,189.33,479.62,184.52,485.88,184.52Zm5,6.35a8.28,8.28,0,0,0-4.36-1.18c-3.45,0-5.22,2.82-5.22,5.77s1.68,5.81,5,5.81a4.81,4.81,0,0,0,4.63-2.9Z"/><path class="cls-4" d="M511.71,184.52a9.4,9.4,0,0,1,9.63,9.71c0,.32-.05,1.05-.09,1.37a1.07,1.07,0,0,1-1,1H506.81a5,5,0,0,0,5.22,4.86,6.93,6.93,0,0,0,4.5-1.55c.5-.41,1-.45,1.36,0l1.77,2.36a.89.89,0,0,1-.09,1.37,11.88,11.88,0,0,1-7.81,2.86c-6.27,0-10.62-5-10.62-11S505.49,184.52,511.71,184.52Zm3.91,8.31a3.84,3.84,0,0,0-4-3.64,4.16,4.16,0,0,0-4.45,3.64Z"/><path class="cls-4" d="M525.61,185.74a1,1,0,0,1,1.08-1,3.2,3.2,0,0,1,3.32,2.86,7.33,7.33,0,0,1,5.86-3.13c2.49,0,4.54.68,4,2l-1.37,3.09a.87.87,0,0,1-1.22.45,4.26,4.26,0,0,0-2-.41,4.58,4.58,0,0,0-4,2.18V205c0,.77-.5,1-1.18,1h-3.5a1,1,0,0,1-1-1Z"/><path class="cls-4" d="M550.3,204.77l14.12-30.56a.83.83,0,0,1,.77-.5h.46a.78.78,0,0,1,.77.5l14,30.56a.8.8,0,0,1-.77,1.18h-4a1.3,1.3,0,0,1-1.31-.91l-2.23-4.9H558.57l-2.23,4.9A1.37,1.37,0,0,1,555,206h-3.95A.8.8,0,0,1,550.3,204.77Zm19.62-9.67-4.54-10h-.14l-4.45,10Z"/><path class="cls-4" d="M593.93,206.45a15.4,15.4,0,0,1-5-.87v10.17a1.08,1.08,0,0,1-1,1h-3.67a1,1,0,0,1-1-1v-30a1,1,0,0,1,1.09-1,3.12,3.12,0,0,1,3.27,2.68,9.06,9.06,0,0,1,6.72-2.95c5.72,0,10,4.63,10,11C604.33,201.63,600.2,206.45,593.93,206.45Zm-5-6.36a8.32,8.32,0,0,0,4.36,1.18c3.45,0,5.22-2.81,5.22-5.76s-1.68-5.82-5-5.82a4.82,4.82,0,0,0-4.63,2.91Z"/><path class="cls-4" d="M619.63,206.45a15.34,15.34,0,0,1-5-.87v10.17a1.08,1.08,0,0,1-1,1h-3.68a1,1,0,0,1-1-1v-30a1,1,0,0,1,1.08-1,3.11,3.11,0,0,1,3.27,2.68,9.08,9.08,0,0,1,6.72-2.95c5.72,0,10,4.63,10,11C630,201.63,625.9,206.45,619.63,206.45Zm-5-6.36a8.32,8.32,0,0,0,4.36,1.18c3.45,0,5.22-2.81,5.22-5.76s-1.68-5.82-4.95-5.82a4.81,4.81,0,0,0-4.63,2.91Z"/><g id="Design-System-Walmart"><g id="Rectangle"><rect class="cls-8" x="359.55" y="157.11" width="68.8" height="68.8" rx="12.95"/><path class="cls-4" d="M415.41,227.52H372.5A14.57,14.57,0,0,1,358,213v-42.9A14.57,14.57,0,0,1,372.5,155.5h42.91A14.57,14.57,0,0,1,430,170.06V213A14.57,14.57,0,0,1,415.41,227.52ZM372.5,157.11a13,13,0,0,0-12.95,12.95V213a13,13,0,0,0,12.95,12.95h42.91A13,13,0,0,0,428.36,213v-42.9a13,13,0,0,0-12.95-12.95Z"/></g><g id="Combined-Shape"><path class="cls-9" d="M386.92,187.47h0a2.16,2.16,0,0,1-2.33,1.26l-11.84-5.49c-1.11-.64-1.28-2.47-.33-4.1s2.62-2.4,3.73-1.76l10.69,7.46A2.12,2.12,0,0,1,386.92,187.47Zm0,8.08a2.12,2.12,0,0,1-.07,2.64l-10.69,7.46c-1.11.64-2.78-.13-3.73-1.76s-.78-3.46.33-4.1l11.84-5.49a2.15,2.15,0,0,1,2.33,1.26Zm7,4c1.16,0,2.13.6,2.25,1.38l1.15,13c0,1.28-1.5,2.33-3.4,2.33s-3.39-1-3.39-2.33l1.15-13A2.11,2.11,0,0,1,394,199.6Zm7-4a2.13,2.13,0,0,1,2.33-1.24l11.84,5.48c1.11.64,1.27,2.46.33,4.1s-2.62,2.4-3.73,1.76l-10.69-7.46a2.13,2.13,0,0,1-.07-2.64Zm0-8.09h0a2.13,2.13,0,0,1,.07-2.64l10.69-7.46c1.11-.64,2.78.13,3.73,1.76s.78,3.46-.33,4.1l-11.84,5.48A2.14,2.14,0,0,1,401,187.46Zm-7-4h0a2.11,2.11,0,0,1-2.24-1.38l-1.15-12.95c0-1.28,1.5-2.34,3.39-2.34s3.4,1.06,3.4,2.34L396.2,182C396.08,182.82,395.11,183.42,394,183.42Z"/></g></g><rect class="cls-10" x="604.62" y="362.47" width="280" height="94" rx="18.8"/><path class="cls-11" d="M668.76,400.43a2.38,2.38,0,0,0,2.51-1.54l1.28-14.48c0-1.43-1.68-2.6-3.79-2.6S665,383,665,384.41l1.28,14.48a2.36,2.36,0,0,0,2.5,1.54Z"/><path class="cls-11" d="M660.94,405a2.35,2.35,0,0,0-.09-2.94L649,393.67c-1.23-.72-3.09.14-4.14,2s-.87,3.86.37,4.57l13.17,6.14a2.39,2.39,0,0,0,2.59-1.4Z"/><path class="cls-11" d="M676.59,405a2.39,2.39,0,0,0,2.59,1.4l13.17-6.14c1.24-.71,1.42-2.75.37-4.57s-2.91-2.69-4.15-2L676.68,402a2.38,2.38,0,0,0-.09,2.94Z"/><path class="cls-11" d="M668.76,418.51a2.38,2.38,0,0,1,2.51,1.54l1.28,14.48c0,1.43-1.68,2.6-3.79,2.6S665,436,665,434.53l1.28-14.48a2.36,2.36,0,0,1,2.5-1.54Z"/><path class="cls-11" d="M676.59,414a2.36,2.36,0,0,1,2.59-1.39l13.17,6.12c1.24.72,1.42,2.76.37,4.58s-2.91,2.69-4.15,2l-11.89-8.33a2.39,2.39,0,0,1-.09-2.95Z"/><path class="cls-11" d="M660.94,414a2.37,2.37,0,0,1-.09,2.95L649,425.27c-1.23.72-3.09-.15-4.14-2s-.87-3.86.37-4.58l13.17-6.12a2.37,2.37,0,0,1,2.59,1.39Z"/><path class="cls-11" d="M697,422.32a2.08,2.08,0,1,1-2.12,2.06,2.06,2.06,0,0,1,2.12-2.06Zm0,.36a1.71,1.71,0,0,0,0,3.41,1.61,1.61,0,0,0,1.62-1.7,1.64,1.64,0,0,0-1.63-1.71Zm-.37,2.84h-.4v-2.16a4,4,0,0,1,.75-.07,1.09,1.09,0,0,1,.69.17.56.56,0,0,1,.22.46.53.53,0,0,1-.43.51v0a.63.63,0,0,1,.36.52,1.83,1.83,0,0,0,.16.54h-.41a1.36,1.36,0,0,1-.17-.57c0-.23-.2-.33-.51-.33h-.26Zm0-1.22h.27c.3,0,.56-.09.56-.35s-.13-.35-.52-.35a1.77,1.77,0,0,0-.31,0Z"/><path class="cls-4" d="M710.22,396.62a58.41,58.41,0,0,1,9.59-.65c4.37,0,7.49.84,9.59,2.56a8.88,8.88,0,0,1,3.35,7.21,9.71,9.71,0,0,1-2.89,7.45c-2.42,2.23-6,3.3-10.19,3.3a12.18,12.18,0,0,1-2.42-.18v11.26h-7Zm7,14.24a10.45,10.45,0,0,0,2.37.19c3.77,0,6.1-1.91,6.1-5.08,0-2.88-2-4.6-5.59-4.6a12.65,12.65,0,0,0-2.88.23Z"/><path class="cls-4" d="M740.1,402a3.54,3.54,0,1,1,3.82-3.54A3.49,3.49,0,0,1,740.1,402Zm-3.49,25.55V404.81h7.07v22.76Z"/><path class="cls-4" d="M766.44,427a16.25,16.25,0,0,1-6.33,1.07c-7.35,0-12.05-4.52-12.05-11.64,0-6.61,4.56-12,13-12a16.39,16.39,0,0,1,5.4.88l-1.12,5.26a9.69,9.69,0,0,0-4-.7,5.87,5.87,0,0,0-6.1,6.33c0,4.19,2.79,6.38,6.24,6.38a10,10,0,0,0,4.05-.75Z"/><path class="cls-4" d="M777.43,414.4h.09a29.78,29.78,0,0,1,1.63-2.75l4.61-6.84h8.51L784.13,414l9.31,13.54h-8.71l-5.53-9.35-1.77,2.23v7.12h-7.08V394.48h7.08Z"/><path class="cls-4" d="M817,420.26c0,3,.1,5.4.19,7.31h-6.14l-.33-3.21h-.14a8.12,8.12,0,0,1-7.12,3.72c-4.65,0-8-2.88-8-9.91V404.81h7.08v12.24c0,3.31,1.07,5.31,3.58,5.31a3.76,3.76,0,0,0,3.54-2.47,3.7,3.7,0,0,0,.28-1.53V404.81H817Z"/><path class="cls-4" d="M822.71,412.44c0-3-.09-5.49-.18-7.63h6.14L829,408h.1a8.82,8.82,0,0,1,7.58-3.68c5,0,9.45,4.33,9.45,11.59,0,8.28-5.26,12.19-10.33,12.19a7.05,7.05,0,0,1-5.91-2.6h-.09v11.31h-7.08Zm7.08,5.36a6.92,6.92,0,0,0,.14,1.49,4.28,4.28,0,0,0,4.14,3.35c3.07,0,4.88-2.56,4.88-6.43,0-3.63-1.62-6.37-4.79-6.37a4.44,4.44,0,0,0-4.23,3.58,5.12,5.12,0,0,0-.14,1.26Z"/><rect class="cls-8" x="315.62" y="362.33" width="274" height="94" rx="18.8"/><path class="cls-11" d="M378.1,397.55c.6,0,1.1-.31,1.16-.72l.6-6.7c0-.66-.78-1.21-1.76-1.21s-1.75.55-1.75,1.21l.59,6.7a1.09,1.09,0,0,0,1.16.72Z"/><path class="cls-11" d="M374.48,399.65a1.12,1.12,0,0,0,0-1.37l-5.52-3.86c-.57-.34-1.43.06-1.92.91s-.4,1.79.17,2.12l6.11,2.84a1.11,1.11,0,0,0,1.2-.65Z"/><path class="cls-11" d="M381.73,399.64a1.11,1.11,0,0,0,1.2.65l6.1-2.84c.58-.33.66-1.28.18-2.12s-1.35-1.25-1.93-.91l-5.51,3.86a1.1,1.1,0,0,0,0,1.37Z"/><path class="cls-11" d="M378.1,405.93c.6,0,1.1.31,1.16.71l.6,6.71c0,.66-.78,1.21-1.76,1.21s-1.75-.55-1.75-1.21l.59-6.71a1.1,1.1,0,0,1,1.16-.71Z"/><path class="cls-11" d="M381.73,403.84a1.08,1.08,0,0,1,1.2-.65L389,406c.58.33.66,1.27.18,2.12s-1.35,1.24-1.93.91l-5.51-3.86a1.1,1.1,0,0,1,0-1.37Z"/><path class="cls-11" d="M374.48,403.83a1.12,1.12,0,0,1,0,1.37l-5.52,3.86c-.57.33-1.43-.07-1.92-.91s-.4-1.79.17-2.12l6.11-2.84a1.08,1.08,0,0,1,1.2.65Z"/><path class="cls-11" d="M391,408.23a1,1,0,0,1,.47.12.93.93,0,0,1,.36.35,1.07,1.07,0,0,1,.12.48,1,1,0,0,1-.12.48.91.91,0,0,1-.35.35,1,1,0,0,1-.48.13.94.94,0,0,1-.48-.13.84.84,0,0,1-.35-.35.91.91,0,0,1-.13-.48,1,1,0,0,1,.13-.48.93.93,0,0,1,.36-.35,1,1,0,0,1,.47-.12m0,.15a.77.77,0,0,0-.39.11.7.7,0,0,0-.3.29.78.78,0,0,0,0,.8.81.81,0,0,0,.29.29.78.78,0,0,0,.8,0,.81.81,0,0,0,.29-.29.78.78,0,0,0,0-.8.7.7,0,0,0-.3-.29.82.82,0,0,0-.39-.11m-.42,1.33v-1h.35a.91.91,0,0,1,.27,0,.31.31,0,0,1,.13.1.28.28,0,0,1,0,.15.26.26,0,0,1-.08.2.34.34,0,0,1-.21.09l.09.06a1,1,0,0,1,.15.2l.12.2h-.2l-.09-.16a.82.82,0,0,0-.17-.24.26.26,0,0,0-.14,0h-.09v.44Zm.17-.58h.2a.3.3,0,0,0,.19,0,.14.14,0,0,0,.06-.12.13.13,0,0,0,0-.08.18.18,0,0,0-.07-.05l-.17,0h-.18Z"/><path class="cls-4" d="M432.47,406.68a2.51,2.51,0,0,1-2.21-1.31l-4-7.23a6.2,6.2,0,0,0-5.43-3.21H405.19V383.36a1.83,1.83,0,0,0-1.83-1.83H355.61a1.83,1.83,0,0,0-1.83,1.83v43.77a1.83,1.83,0,0,0,1.83,1.83h6.8a10.29,10.29,0,0,0,20.26,0h26.86a10.29,10.29,0,0,0,20.26,0h2.68a5.33,5.33,0,0,0,5.32-5.32V412A5.32,5.32,0,0,0,432.47,406.68Zm-59.93,27.08a6.64,6.64,0,1,1,6.63-6.63h0A6.63,6.63,0,0,1,372.54,433.76Zm28.86-9.71a1.58,1.58,0,0,1-1.57,1.57H382.72a10.3,10.3,0,0,0-20.37,0h-3.53a1.57,1.57,0,0,1-1.57-1.57V386.44a1.57,1.57,0,0,1,1.57-1.58h41a1.58,1.58,0,0,1,1.57,1.58Zm18.26,9.71a6.63,6.63,0,0,1-2.07-12.94,6.75,6.75,0,0,1,2.07-.33,6.62,6.62,0,0,1,2.52.5l.35.15a6.61,6.61,0,0,1,1.55,1.05l.27.25a6.61,6.61,0,0,1,1.94,4.69h0A6.63,6.63,0,0,1,419.66,433.76Zm14.47-10.12a1.66,1.66,0,0,1-1.66,1.66h-2.68l0-.14a1.42,1.42,0,0,0,0-.2l-.06-.28c0-.07,0-.13-.05-.19s-.05-.2-.08-.29a1.54,1.54,0,0,1,0-.17l-.12-.33a.65.65,0,0,0,0-.13c-.05-.15-.11-.3-.17-.44a.43.43,0,0,0,0-.07,3,3,0,0,0-.16-.36l-.07-.15c-.05-.1-.1-.19-.14-.28l-.1-.16-.14-.25-.1-.17-.15-.23-.11-.16-.16-.23-.12-.16-.18-.22a.76.76,0,0,0-.11-.14l-.21-.25-.1-.11-.32-.34-.05-.05-.29-.27-.13-.11-.22-.2-.15-.12-.22-.17-.16-.12-.22-.16-.17-.11-.23-.15-.17-.1-.25-.15-.16-.09-.28-.14-.14-.07-.43-.2-.05,0-.4-.15-.15-.06-.3-.1-.18-.05-.28-.08-.2-.05-.28-.07-.2,0-.28,0-.2,0-.3,0-.19,0-.33,0H419l-.33,0-.19,0-.3,0-.2,0-.28,0-.2,0-.28.07-.2.05-.27.08-.19.05-.29.1-.16.06a3.12,3.12,0,0,0-.39.15l-.06,0-.43.2-.15.07-.27.14-.17.1-.24.13-.17.11-.23.15-.17.11-.21.16-.17.12-.21.16-.16.13-.21.19-.14.12-.25.24-.09.09a3.34,3.34,0,0,0-.32.33l-.12.13-.19.22a1.83,1.83,0,0,1-.13.16l-.16.21-.13.17-.15.21-.12.18-.14.22a1.74,1.74,0,0,1-.11.18l-.13.23-.1.18c0,.08-.09.16-.13.25a1.3,1.3,0,0,0-.08.17l-.15.32-.05.11c-.06.15-.12.29-.17.44a.88.88,0,0,0-.05.15l-.11.3c0,.06,0,.12,0,.18s-.06.19-.08.29,0,.13,0,.19a2.86,2.86,0,0,1-.07.28,1.42,1.42,0,0,1,0,.2.68.68,0,0,1,0,.14h-4.34V398.59h15.68a2.54,2.54,0,0,1,2.22,1.31l4,7.23a6.17,6.17,0,0,0,5.42,3.21,1.65,1.65,0,0,1,1.66,1.65Z"/><path class="cls-4" d="M421.25,401.74l-3.2,1.77,1.86,3.36H410.1v3.66H423a1.83,1.83,0,0,0,1.6-2.72Z"/><path class="cls-4" d="M453.9,390.6a.44.44,0,0,1,.43-.44h5.54a8.19,8.19,0,1,1,0,16.38h-5.54a.44.44,0,0,1-.43-.45Zm5.69,13.08a5.35,5.35,0,0,0,0-10.69h-2.67v10.69Z"/><path class="cls-4" d="M475.41,395.49a4.86,4.86,0,0,1,5,5c0,.16,0,.54-.05.7a.55.55,0,0,1-.52.49h-6.92a2.59,2.59,0,0,0,2.69,2.51,3.61,3.61,0,0,0,2.32-.8c.25-.21.53-.23.7,0l.91,1.22a.45.45,0,0,1-.05.7,6.07,6.07,0,0,1-4,1.48,5.66,5.66,0,0,1,0-11.31Zm2,4.29a2,2,0,0,0-2.09-1.88,2.15,2.15,0,0,0-2.29,1.88Z"/><path class="cls-4" d="M482.25,405.81a.47.47,0,0,1-.14-.58l.7-1.41a.41.41,0,0,1,.63-.18,4.43,4.43,0,0,0,2.39.7c.82,0,1.19-.3,1.19-.77s-.61-.94-2-1.5c-2.09-.8-3-1.78-3-3.42s1.24-3.16,3.88-3.16a5.86,5.86,0,0,1,3.21.8.61.61,0,0,1,.23.75l-.61,1.24a.54.54,0,0,1-.67.21,5.13,5.13,0,0,0-2.16-.54c-.72,0-1,.35-1,.7s.54.75,1.55,1.17c2.08.84,3.58,1.59,3.58,3.75,0,1.71-1.45,3.23-4.17,3.23A6,6,0,0,1,482.25,405.81Z"/><path class="cls-4" d="M497.77,406.8a7.92,7.92,0,0,1-2.6-.45v5.25a.56.56,0,0,1-.52.51h-1.89a.54.54,0,0,1-.52-.51V396.12a.5.5,0,0,1,.56-.49,1.61,1.61,0,0,1,1.69,1.38,4.71,4.71,0,0,1,3.46-1.52c2.95,0,5.18,2.39,5.18,5.67A5.31,5.31,0,0,1,497.77,406.8Zm-2.6-3.28a4.28,4.28,0,0,0,2.25.61,2.73,2.73,0,0,0,2.69-3c0-1.52-.87-3-2.55-3a2.47,2.47,0,0,0-2.39,1.5Z"/><path class="cls-4" d="M509.05,399.71a8,8,0,0,1,2.08.3,1.86,1.86,0,0,0-2-2,8.89,8.89,0,0,0-2.5.4c-.35.12-.56-.14-.61-.47l-.23-1.21a.49.49,0,0,1,.35-.66,10.59,10.59,0,0,1,3.16-.54c3.13,0,4.61,1.76,4.61,4.71v5.94a.5.5,0,0,1-.56.49,1.58,1.58,0,0,1-1.62-1.1,4.77,4.77,0,0,1-3.3,1.27,3.44,3.44,0,0,1-3.65-3.7C504.74,401.18,506.31,399.71,509.05,399.71Zm.07,4.91a2.31,2.31,0,0,0,1.94-1.15v-1.59a4.31,4.31,0,0,0-1.59-.33c-1.24,0-1.92.59-1.92,1.55A1.43,1.43,0,0,0,509.12,404.62Z"/><path class="cls-4" d="M521.85,395.49a5.36,5.36,0,0,1,4,1.83c.23.23.11.54-.12.77l-1,1.08c-.24.25-.5.14-.71-.07a2.93,2.93,0,0,0-2.15-.94,3,3,0,0,0,0,6,2.89,2.89,0,0,0,2.29-1.19.51.51,0,0,1,.68-.08l1,.89c.26.24.38.5.19.78a4.85,4.85,0,0,1-4.28,2.27,5.66,5.66,0,1,1,0-11.31Z"/><path class="cls-4" d="M528.29,390.67a.54.54,0,0,1,.51-.51h1.9a.53.53,0,0,1,.51.51v5.74a4.2,4.2,0,0,1,2.76-.92c3.44,0,4.38,2.39,4.38,5.1V406a.53.53,0,0,1-.51.52h-1.9a.51.51,0,0,1-.51-.52v-5.45c0-1.5-.68-2.41-2-2.41a2.24,2.24,0,0,0-2.25,1.9v6c0,.31-.14.52-.56.52H528.8a.53.53,0,0,1-.51-.52Z"/><path class="cls-4" d="M546.07,395.49a5.66,5.66,0,1,1-5.52,5.62A5.62,5.62,0,0,1,546.07,395.49Zm0,8.64a2.94,2.94,0,0,0,2.84-3,2.83,2.83,0,1,0-2.84,3Z"/><path class="cls-4" d="M457,421.7a7.76,7.76,0,0,1,2.08.31,1.85,1.85,0,0,0-2-2,9,9,0,0,0-2.51.4c-.35.11-.56-.14-.61-.47l-.23-1.22A.49.49,0,0,1,454,418a10.39,10.39,0,0,1,3.16-.54c3.14,0,4.61,1.75,4.61,4.7v5.95a.5.5,0,0,1-.56.49,1.58,1.58,0,0,1-1.61-1.1,4.84,4.84,0,0,1-3.3,1.26,3.44,3.44,0,0,1-3.66-3.7C452.66,423.18,454.23,421.7,457,421.7Zm.07,4.92a2.31,2.31,0,0,0,1.94-1.15v-1.59a4.25,4.25,0,0,0-1.59-.33c-1.24,0-1.92.59-1.92,1.54A1.43,1.43,0,0,0,457,426.62Z"/><path class="cls-4" d="M470,420.34a.51.51,0,0,1-.49-.51v-1.59a.49.49,0,0,1,.49-.52H471v-3a.54.54,0,0,1,.51-.52h1.92a.5.5,0,0,1,.49.52v3h2.53a.51.51,0,0,1,.52.52v1.59a.53.53,0,0,1-.52.51H474v4.36c0,1.05.47,1.47,1.15,1.47a4.29,4.29,0,0,0,1.38-.26.42.42,0,0,1,.61.28l.3,1.41a.52.52,0,0,1-.3.63,5.66,5.66,0,0,1-2.48.56c-2.2,0-3.58-1.42-3.58-3.88v-4.57Z"/><path class="cls-4" d="M479.32,418.24a.51.51,0,0,1,.52-.52h1.89a.51.51,0,0,1,.52.52V424c0,1.43.49,2.15,1.82,2.15s1.76-1.07,1.92-2v-5.87c0-.42.14-.52.59-.52h1.82a.5.5,0,0,1,.52.52v9.9a.5.5,0,0,1-.56.49,1.59,1.59,0,0,1-1.69-1.34,4.6,4.6,0,0,1-3.27,1.5c-3.35,0-4.08-2.08-4.08-4.82Z"/><path class="cls-4" d="M502.61,417.49a5.35,5.35,0,0,1,4,1.82c.23.24.11.54-.12.78l-1,1.07c-.24.26-.49.14-.71-.07a2.92,2.92,0,0,0-2.15-.93,3,3,0,1,0,2.27,4.77.51.51,0,0,1,.68-.07l1.05.89c.26.23.38.49.19.77a4.83,4.83,0,0,1-4.28,2.27,5.65,5.65,0,1,1,0-11.3Z"/><path class="cls-4" d="M512.61,421.7a7.76,7.76,0,0,1,2.08.31,1.86,1.86,0,0,0-2-2,8.89,8.89,0,0,0-2.5.4c-.35.11-.56-.14-.61-.47l-.23-1.22a.48.48,0,0,1,.35-.65,10.25,10.25,0,0,1,3.16-.54c3.13,0,4.61,1.75,4.61,4.7v5.95a.51.51,0,0,1-.57.49,1.59,1.59,0,0,1-1.61-1.1,4.84,4.84,0,0,1-3.3,1.26,3.44,3.44,0,0,1-3.65-3.7C508.3,423.18,509.87,421.7,512.61,421.7Zm.07,4.92a2.33,2.33,0,0,0,1.94-1.15v-1.59a4.31,4.31,0,0,0-1.59-.33c-1.24,0-1.92.59-1.92,1.54A1.43,1.43,0,0,0,512.68,426.62Z"/><path class="cls-4" d="M520,427.81a.48.48,0,0,1-.14-.59l.7-1.4a.41.41,0,0,1,.63-.19,4.37,4.37,0,0,0,2.39.71c.82,0,1.2-.31,1.2-.78s-.61-.93-2-1.5c-2.08-.79-3-1.77-3-3.41s1.24-3.16,3.89-3.16a5.9,5.9,0,0,1,3.2.79.6.6,0,0,1,.24.75l-.61,1.24a.53.53,0,0,1-.68.21,5.24,5.24,0,0,0-2.15-.53c-.73,0-1,.35-1,.7s.53.75,1.54,1.17c2.08.84,3.58,1.59,3.58,3.74,0,1.71-1.45,3.23-4.16,3.23A6.07,6.07,0,0,1,520,427.81Z"/><path class="cls-4" d="M533.55,421.7a7.89,7.89,0,0,1,2.09.31,1.86,1.86,0,0,0-2-2,8.89,8.89,0,0,0-2.5.4c-.36.11-.57-.14-.61-.47l-.24-1.22a.49.49,0,0,1,.35-.65,10.39,10.39,0,0,1,3.16-.54c3.14,0,4.61,1.75,4.61,4.7v5.95a.5.5,0,0,1-.56.49,1.59,1.59,0,0,1-1.61-1.1,4.84,4.84,0,0,1-3.3,1.26,3.44,3.44,0,0,1-3.65-3.7C529.25,423.18,530.81,421.7,533.55,421.7Zm.07,4.92a2.33,2.33,0,0,0,2-1.15v-1.59a4.33,4.33,0,0,0-1.6-.33c-1.24,0-1.92.59-1.92,1.54A1.43,1.43,0,0,0,533.62,426.62Z"/></g></g></svg>