<svg xmlns="http://www.w3.org/2000/svg" viewBox="0 0 214.07 240.3"><defs><style>.cls-1{fill:#ffc220;}</style></defs><g id="Capa_2" data-name="Capa 2"><g id="Capa_1-2" data-name="Capa 1"><path class="cls-1" d="M107,80.9c5.63,0,10.26-2.93,10.88-6.72l5.56-62.86C123.46,5.11,116.18,0,107,0S90.62,5.11,90.62,11.32l5.55,62.86C96.79,78,101.42,80.9,107,80.9Z"/><path class="cls-1" d="M73,100.54c2.83-4.88,2.62-10.36-.37-12.78L21,51.52c-5.36-3.12-13.42.63-18,8.55S-.79,76.84,4.58,80L61.8,106.59c3.57,1.33,8.45-1.22,11.25-6.09Z"/><path class="cls-1" d="M141,100.5c2.83,4.87,7.68,7.42,11.25,6.08L209.49,80c5.39-3.11,6.15-12,1.6-19.87s-12.66-11.68-18-8.57L141.41,87.76c-3,2.42-3.18,7.91-.37,12.77Z"/><path class="cls-1" d="M107,159.42c5.63,0,10.26,2.91,10.88,6.68L123.46,229c0,6.23-7.28,11.33-16.43,11.33S90.62,235.2,90.62,229l5.55-62.87c.62-3.77,5.25-6.68,10.86-6.68Z"/><path class="cls-1" d="M141,139.79c2.83-4.88,7.68-7.42,11.25-6.06l57.23,26.6c5.39,3.13,6.15,12,1.6,19.91s-12.66,11.64-18,8.56l-51.67-36.23c-3-2.46-3.18-7.93-.37-12.8Z"/><path class="cls-1" d="M73,139.77c2.83,4.88,2.62,10.35-.37,12.8L21,188.79c-5.36,3.1-13.42-.66-18-8.57s-3.78-16.77,1.59-19.9l57.22-26.6c3.57-1.35,8.45,1.19,11.26,6.07Z"/></g></g></svg>